<svg width="192" height="59" viewBox="0 0 192 59" fill="none" xmlns="http://www.w3.org/2000/svg">
<path d="M5 53L187 53" stroke="url(#paint0_radial_557_88)" stroke-width="10" stroke-linecap="round"/>
<path d="M129.906 29.957C130.633 29.957 131.178 30.0859 131.541 30.3438C131.904 30.6016 132.086 30.9941 132.086 31.5215C132.086 32.2129 131.828 32.8809 131.312 33.5254C130.82 34.1348 130.082 34.627 129.098 35.002C128.559 35.2012 128.107 35.3008 127.744 35.3008C127.252 35.3008 127.006 35.084 127.006 34.6504C127.006 34.3574 127.146 34.1348 127.428 33.9824C127.498 33.9473 127.896 33.8477 128.623 33.6836C129.057 33.5898 129.455 33.3848 129.818 33.0684C130.135 32.7988 130.293 32.5059 130.293 32.1895C130.293 31.9434 130.223 31.7617 130.082 31.6445C129.941 31.5273 129.73 31.4688 129.449 31.4688C128.77 31.4688 128.02 31.7441 127.199 32.2949C126.25 32.916 125.775 33.6543 125.775 34.5098C125.775 35.1191 126.086 35.8809 126.707 36.7949C127.398 37.791 127.744 38.6348 127.744 39.3262C127.744 40.3574 127.287 41.166 126.373 41.752C125.811 42.1152 125.172 42.2969 124.457 42.2969C123.332 42.2969 122.477 41.8926 121.891 41.084C121.48 40.5098 121.275 39.8301 121.275 39.0449C121.275 38.1309 121.51 37.3633 121.979 36.7422C122.283 36.332 122.6 36.127 122.928 36.127C123.221 36.127 123.367 36.2441 123.367 36.4785C123.367 36.5723 123.314 36.7129 123.209 36.9004C122.939 37.4043 122.805 37.9961 122.805 38.6758C122.805 39.25 123.01 39.7363 123.42 40.1348C123.783 40.4863 124.199 40.6621 124.668 40.6621C125.125 40.6621 125.482 40.5098 125.74 40.2051C125.951 39.9473 126.057 39.6191 126.057 39.2207C126.057 38.7285 125.775 38.0898 125.213 37.3047C124.439 36.2266 124.053 35.248 124.053 34.3691C124.053 33.1973 124.691 32.1602 125.969 31.2578C127.211 30.3906 128.523 29.957 129.906 29.957ZM135.285 34.4395C136.152 33.5371 137.02 32.7812 137.887 32.1719C139 31.3984 139.797 31.0117 140.277 31.0117C140.477 31.0117 140.67 31.0938 140.857 31.2578C141.068 31.4453 141.174 31.6621 141.174 31.9082C141.174 32.2246 140.922 32.7168 140.418 33.3848C139.445 34.6738 138.707 35.8457 138.203 36.9004C137.758 37.8145 137.535 38.4355 137.535 38.7637C137.535 39.0801 137.688 39.2383 137.992 39.2383C138.625 39.2383 139.691 38.1133 141.191 35.8633C141.496 35.4062 141.771 35.1777 142.018 35.1777C142.264 35.1777 142.387 35.3184 142.387 35.5996C142.387 36.0566 141.941 36.9297 141.051 38.2188C140.277 39.3438 139.469 40.2051 138.625 40.8027C138.027 41.2129 137.488 41.418 137.008 41.418C136.504 41.418 136.141 41.2012 135.918 40.7676C135.777 40.498 135.707 40.1992 135.707 39.8711C135.707 38.8281 136.076 37.6387 136.814 36.3027C136.99 35.9863 137.518 35.084 138.396 33.5957C136.006 34.8027 133.984 37.4102 132.332 41.418C132.18 41.875 131.945 42.1035 131.629 42.1035C131.406 42.1035 131.225 42.0273 131.084 41.875C130.943 41.7109 130.873 41.5117 130.873 41.2773C130.873 40.8906 131.248 39.7949 131.998 37.9902C133.393 34.6387 134.693 31.8027 135.9 29.4824C137.107 27.1387 138.449 24.707 139.926 22.1875C140.277 21.5781 140.553 21.168 140.752 20.957C140.951 20.7461 141.162 20.6406 141.385 20.6406C141.596 20.6406 141.777 20.752 141.93 20.9746C142.047 21.1387 142.105 21.3262 142.105 21.5371C142.105 21.8652 141.918 22.3047 141.543 22.8555C140.277 24.8125 139.018 26.9629 137.764 29.3066C136.416 31.8145 135.59 33.5254 135.285 34.4395ZM149.049 30.291C150.01 30.291 150.49 30.877 150.49 32.0488C150.49 33.6074 149.77 35.582 148.328 37.9727C146.758 40.5625 145.24 41.8574 143.775 41.8574C143.096 41.8574 142.598 41.541 142.281 40.9082C142.117 40.5918 142.035 40.2109 142.035 39.7656C142.035 38.2656 142.551 36.6367 143.582 34.8789C144.543 33.25 145.674 31.9844 146.975 31.082C147.736 30.5547 148.428 30.291 149.049 30.291ZM147.221 36.9355C146.928 36.7012 146.781 36.5195 146.781 36.3906C146.781 36.2969 146.969 36.0391 147.344 35.6172C148.398 34.4336 148.926 33.4785 148.926 32.752C148.926 32.6582 148.896 32.5645 148.838 32.4707C148.744 32.2949 148.598 32.207 148.398 32.207C148.023 32.207 147.473 32.5703 146.746 33.2969C145.809 34.2344 145.094 35.2012 144.602 36.1973C144.027 37.334 143.74 38.2773 143.74 39.0273C143.74 39.2266 143.793 39.4023 143.898 39.5547C144.051 39.7656 144.244 39.8711 144.479 39.8711C145.041 39.8711 145.645 39.4492 146.289 38.6055C146.57 38.2539 146.799 37.8906 146.975 37.5156C147.15 37.1406 147.232 36.9473 147.221 36.9355ZM155.693 32.2949C156.174 31.9902 156.531 31.7793 156.766 31.6621C157.246 31.4277 157.715 31.3105 158.172 31.3105C158.688 31.3105 159.074 31.4629 159.332 31.7676C159.59 32.0605 159.719 32.5059 159.719 33.1035C159.719 33.9238 159.432 34.9082 158.857 36.0566C157.967 37.873 156.889 39.3027 155.623 40.3457C154.557 41.2246 153.555 41.6641 152.617 41.6641C152.102 41.6641 151.592 41.4648 151.088 41.0664C149.482 44.3125 148.047 47.623 146.781 50.998C146.512 51.8066 146.195 52.2109 145.832 52.2109C145.656 52.2109 145.48 52.0938 145.305 51.8594C145.176 51.6953 145.111 51.5137 145.111 51.3145C145.111 50.6816 145.885 48.625 147.432 45.1445C149.822 39.7773 152.09 35.3184 154.234 31.7676C154.68 31.0176 154.979 30.502 155.131 30.2207C155.541 29.459 155.939 29.0781 156.326 29.0781C156.725 29.0781 156.924 29.3184 156.924 29.7988C156.924 30.0684 156.783 30.4316 156.502 30.8887C156.162 31.4746 155.893 31.9434 155.693 32.2949ZM151.738 39.5898C151.996 39.8594 152.318 39.9941 152.705 39.9941C153.795 39.9941 155.002 39.0273 156.326 37.0938C156.818 36.3789 157.211 35.6465 157.504 34.8965C157.738 34.2988 157.855 33.8477 157.855 33.543C157.855 33.332 157.803 33.1738 157.697 33.0684C157.604 32.9629 157.451 32.9102 157.24 32.9102C156.689 32.9102 156.016 33.291 155.219 34.0527C154.457 34.791 153.725 35.8281 153.021 37.1641C152.377 38.3945 151.949 39.2031 151.738 39.5898Z" fill="#654A88"/>
<path d="M56.2453 24.7578C53.0266 25.4141 49.6906 26.4297 46.2375 27.8047C46.1125 28.0547 45.9875 28.3125 45.8625 28.5781C43.7062 32.7188 42.2531 36.6406 41.5031 40.3438C41.3469 41.2188 40.9953 41.6562 40.4484 41.6562C40.0422 41.6562 39.6828 41.4531 39.3703 41.0469C39.1203 40.7344 38.9953 40.3984 38.9953 40.0391C38.9953 39.6016 39.1906 38.6953 39.5812 37.3203C39.9719 35.9297 40.3781 34.7109 40.8 33.6641C40.9562 33.2734 41.4484 32.1328 42.2766 30.2422C42.4797 29.7891 42.6828 29.3125 42.8859 28.8125C42.5578 28.9375 42.1047 29.125 41.5266 29.375C41.2766 29.4844 41.05 29.5391 40.8469 29.5391C40.3625 29.5391 40.1203 29.1719 40.1203 28.4375C40.1203 27.9531 40.3234 27.5859 40.7297 27.3359C41.0422 27.1328 41.5969 26.8906 42.3937 26.6094C43.2375 26.2969 43.9016 26.0391 44.3859 25.8359C44.6984 25.2891 45.2922 24.1641 46.1672 22.4609C46.3234 22.1484 46.8469 21.2578 47.7375 19.7891C50.2844 15.5078 51.9406 12.4609 52.7062 10.6484C53.4094 9.00781 53.8469 8.07812 54.0187 7.85938C54.3312 7.45313 54.7062 7.25 55.1437 7.25C55.8781 7.25 56.2453 7.60937 56.2453 8.32812C56.2453 9.96875 54.0109 14.3984 49.5422 21.6172C48.8078 22.8047 48.2687 23.8359 47.925 24.7109L49.0969 24.3828C52.2844 23.4609 55.1828 22.6562 57.7922 21.9688C59.5891 18.6562 61.7922 14.9844 64.4016 10.9531C64.8547 10.2344 65.1203 9.78906 65.1984 9.61719C65.5734 8.94531 65.9719 8.60938 66.3937 8.60938C66.7531 8.60938 67.05 8.75781 67.2844 9.05469C67.4719 9.30469 67.5656 9.57812 67.5656 9.875C67.5656 10.4375 67.2609 11.2422 66.6516 12.2891C66.5109 12.5391 65.8703 13.5391 64.7297 15.2891C62.7297 18.3828 61.4719 20.4531 60.9562 21.5C61.4094 21.4531 61.7531 21.4297 61.9875 21.4297C63.2219 21.4297 63.8391 21.7344 63.8391 22.3438C63.8391 22.7188 63.6437 23.0859 63.2531 23.4453C62.9562 23.7266 62.6281 23.8672 62.2687 23.8672H61.3547C60.9797 23.8672 60.4172 23.9375 59.6672 24.0781C56.3547 29.9844 54.1906 35.1641 53.175 39.6172C52.925 40.6172 52.5344 41.1172 52.0031 41.1172C51.5969 41.1172 51.2141 40.8594 50.8547 40.3438C50.6203 39.9844 50.5031 39.6016 50.5031 39.1953C50.5031 37.6953 52.4172 32.8828 56.2453 24.7578ZM88.5375 20.5391C87.1312 22.1953 84.2016 26.0391 79.7484 32.0703C77.8891 34.5859 76.1469 36.7031 74.5219 38.4219C72.6937 40.3438 71.1625 41.3047 69.9281 41.3047C69.0844 41.3047 68.3969 40.8438 67.8656 39.9219C67.5062 39.2812 67.3266 38.5156 67.3266 37.625C67.3266 34.7812 68.5766 30.8906 71.0766 25.9531C73.5141 21.1875 76.6937 16.5469 80.6156 12.0312C82.2406 10.1562 83.3734 9.21875 84.0141 9.21875C84.2172 9.21875 84.4203 9.30469 84.6234 9.47656C84.9047 9.71094 85.0453 10 85.0453 10.3438C85.0453 10.7969 84.6703 11.3984 83.9203 12.1484C83.7484 12.3203 82.5297 13.7344 80.2641 16.3906C77.3578 19.7969 74.8031 23.7656 72.6 28.2969C71.6625 30.2344 70.9281 32.1172 70.3969 33.9453C70.0219 35.1953 69.8344 36.1875 69.8344 36.9219C69.8344 37.2344 69.9047 37.5156 70.0453 37.7656C70.2328 38.0625 70.4906 38.2109 70.8187 38.2109C71.4281 38.2109 72.3031 37.5625 73.4437 36.2656C76.3187 32.9688 81.0141 27.0547 87.5297 18.5234C89.1703 16.3672 91.0219 14.1172 93.0844 11.7734C93.6469 11.1328 94.0922 10.6719 94.4203 10.3906C94.7484 10.0937 95.1312 9.94531 95.5687 9.94531C95.8656 9.94531 96.1234 10.0625 96.3422 10.2969C96.5453 10.5 96.6469 10.7344 96.6469 11C96.6469 11.3906 96.2953 12.1094 95.5922 13.1562C92.0297 18.5 89.2328 23.5859 87.2016 28.4141C85.1859 33.1953 84.1312 36.7422 84.0375 39.0547C84.0062 39.8828 83.9516 40.3906 83.8734 40.5781C83.7484 40.8594 83.5219 41 83.1937 41C82.7094 41 82.2953 40.7891 81.9516 40.3672C81.7016 40.0391 81.5766 39.6484 81.5766 39.1953C81.5766 38.1484 81.85 36.5859 82.3969 34.5078C83.0687 31.9297 84.1625 29.0703 85.6781 25.9297C85.7719 25.7578 86.725 23.9609 88.5375 20.5391ZM112.931 9.28906C113.181 9.28906 113.423 9.42188 113.658 9.6875C113.861 9.92188 113.962 10.1797 113.962 10.4609C113.962 10.8516 113.752 11.3828 113.33 12.0547C113.127 12.3828 112.361 13.4687 111.033 15.3125C104.814 23.875 100.814 31.6016 99.0328 38.4922C98.8297 39.6016 98.4078 40.1562 97.7672 40.1562C97.4234 40.1562 97.1187 39.9922 96.8531 39.6641C96.6031 39.3672 96.4781 39.0312 96.4781 38.6562C96.4781 37.875 96.8531 36.4297 97.6031 34.3203C99.3219 29.4453 102.4 23.6172 106.837 16.8359C108.65 14.0547 110.127 11.9687 111.267 10.5781C112.002 9.71875 112.556 9.28906 112.931 9.28906ZM128.231 12.5C127.419 13.4063 126.341 14.9063 124.997 17C123.637 19.125 122.661 20.7656 122.067 21.9219C125.442 21.25 127.778 20.9141 129.075 20.9141C129.7 20.9141 130.177 20.9766 130.505 21.1016C130.88 21.2266 131.067 21.5156 131.067 21.9688C131.067 22.9375 130.52 23.4219 129.427 23.4219C129.364 23.4219 129.239 23.4219 129.052 23.4219C128.583 23.4062 128.239 23.3984 128.02 23.3984C126.473 23.3984 123.903 23.9062 120.309 24.9219C118.028 28.8438 116.02 33.5312 114.286 38.9844C114.052 39.8125 113.684 40.2266 113.184 40.2266C112.747 40.2266 112.38 39.9844 112.083 39.5C111.848 39.1406 111.731 38.7812 111.731 38.4219C111.731 38.0156 112.161 36.6406 113.02 34.2969C114.442 30.4375 116.473 26.2969 119.114 21.875C120.786 19.1094 122.622 16.1797 124.622 13.0859C124.091 13.0078 123.825 12.7109 123.825 12.1953C123.825 11.4297 124.567 10.8437 126.052 10.4375C128.114 9.85937 130.122 9.41406 132.075 9.10156C134.294 8.74219 135.981 8.5625 137.137 8.5625C138.966 8.5625 139.88 9.02344 139.88 9.94531C139.88 10.4141 139.669 10.7969 139.247 11.0938C139.075 11.2187 138.88 11.2812 138.661 11.2812C138.473 11.2812 138.208 11.2578 137.864 11.2109C137.333 11.1328 136.872 11.0938 136.481 11.0938C135.637 11.0938 134.216 11.2578 132.216 11.5859C130.778 11.8047 129.45 12.1094 128.231 12.5Z" fill="#1D2370"/>
<defs>
<radialGradient id="paint0_radial_557_88" cx="0" cy="0" r="1" gradientUnits="userSpaceOnUse" gradientTransform="translate(96 53.5) rotate(90) scale(0.5 91)">
<stop stop-color="#070B45"/>
<stop offset="1" stop-opacity="0"/>
</radialGradient>
</defs>
</svg>
